<?xml version="1.0" encoding="UTF-8" standalone="no"?>
<!DOCTYPE svg PUBLIC "-//W3C//DTD SVG 1.1//EN"
 "http://www.w3.org/Graphics/SVG/1.1/DTD/svg11.dtd">
<!-- Generated by graphviz version 2.40.1 (20161225.0304)
 -->
<!-- Title: G Pages: 1 -->
<svg width="616pt" height="566pt"
 viewBox="0.00 0.00 615.52 566.00" xmlns="http://www.w3.org/2000/svg" xmlns:xlink="http://www.w3.org/1999/xlink">
<g id="graph0" class="graph" transform="scale(1 1) rotate(0) translate(4 562)">
<title>G</title>
<polygon fill="#ffffff" stroke="transparent" points="-4,4 -4,-562 611.516,-562 611.516,4 -4,4"/>
<!-- A0 -->
<g id="node1" class="node">
<title>A0</title>
<polygon fill="none" stroke="#000000" points="261.0035,-532 207.0035,-532 207.0035,-496 261.0035,-496 261.0035,-532"/>
<text text-anchor="middle" x="234.0035" y="-511" font-family="Helvetica,sans-Serif" font-size="10.00" fill="#000000">App</text>
</g>
<!-- A1 -->
<g id="node2" class="node">
<title>A1</title>
<polygon fill="none" stroke="#000000" points="263.0185,-420 204.9885,-420 204.9885,-384 263.0185,-384 263.0185,-420"/>
<text text-anchor="middle" x="234.0035" y="-399" font-family="Helvetica,sans-Serif" font-size="10.00" fill="#000000">Layout</text>
</g>
<!-- A0&#45;&gt;A1 -->
<g id="edge1" class="edge">
<title>A0&#45;&gt;A1</title>
<path fill="none" stroke="#000000" d="M234.0035,-495.5055C234.0035,-474.6294 234.0035,-440.8837 234.0035,-420.1504"/>
</g>
<!-- A2 -->
<g id="node3" class="node">
<title>A2</title>
<polygon fill="none" stroke="#000000" points="129.8966,-334 68.1104,-334 68.1104,-298 129.8966,-298 129.8966,-334"/>
<text text-anchor="middle" x="99.0035" y="-313" font-family="Helvetica,sans-Serif" font-size="10.00" fill="#000000">Toolbar</text>
</g>
<!-- A1&#45;&gt;A2 -->
<g id="edge2" class="edge">
<title>A1&#45;&gt;A2</title>
<path fill="none" stroke="#000000" d="M205.7031,-383.9716C182.6626,-369.2939 150.2971,-348.6759 127.2667,-334.0047"/>
</g>
<!-- A3 -->
<g id="node4" class="node">
<title>A3</title>
<polygon fill="none" stroke="#000000" points="228.2238,-334 147.7832,-334 147.7832,-298 228.2238,-298 228.2238,-334"/>
<text text-anchor="middle" x="188.0035" y="-313" font-family="Helvetica,sans-Serif" font-size="10.00" fill="#000000">SideDrawer</text>
</g>
<!-- A1&#45;&gt;A3 -->
<g id="edge3" class="edge">
<title>A1&#45;&gt;A3</title>
<path fill="none" stroke="#000000" d="M224.2481,-383.7616C216.4417,-369.1671 205.5475,-348.7996 197.7449,-334.2121"/>
</g>
<!-- A4 -->
<g id="node5" class="node">
<title>A4</title>
<polygon fill="none" stroke="#000000" points="316.2379,-334 245.7691,-334 245.7691,-298 316.2379,-298 316.2379,-334"/>
<text text-anchor="middle" x="281.0035" y="-313" font-family="Helvetica,sans-Serif" font-size="10.00" fill="#000000">Backdrop</text>
</g>
<!-- A1&#45;&gt;A4 -->
<g id="edge4" class="edge">
<title>A1&#45;&gt;A4</title>
<path fill="none" stroke="#000000" d="M243.971,-383.7616C251.947,-369.1671 263.0781,-348.7996 271.0504,-334.2121"/>
</g>
<!-- A5 -->
<g id="node6" class="node">
<title>A5</title>
<polygon fill="none" stroke="#000000" points="431.9706,-334 334.0364,-334 334.0364,-298 431.9706,-298 431.9706,-334"/>
<text text-anchor="middle" x="383.0035" y="-313" font-family="Helvetica,sans-Serif" font-size="10.00" fill="#000000">{props.children}</text>
</g>
<!-- A1&#45;&gt;A5 -->
<g id="edge5" class="edge">
<title>A1&#45;&gt;A5</title>
<path fill="none" stroke="#000000" d="M263.0859,-385.2142C288.5779,-370.5007 325.5422,-349.1656 351.6795,-334.0796"/>
</g>
<!-- A6 -->
<g id="node7" class="node">
<title>A6</title>
<polygon fill="none" stroke="#000000" points="99.0035,-216 99.0035,-248 189.0035,-248 189.0035,-216 99.0035,-216"/>
<text text-anchor="start" x="112.6145" y="-229" font-family="Helvetica,sans-Serif" font-size="10.00" fill="#000000">DrawerToggle</text>
<polygon fill="none" stroke="#000000" points="99.0035,-172 99.0035,-216 189.0035,-216 189.0035,-172 99.0035,-172"/>
<text text-anchor="start" x="134.5555" y="-197" font-family="Helvetica,sans-Serif" font-size="10.00" fill="#000000">logo</text>
<text text-anchor="start" x="108.995" y="-185" font-family="Helvetica,sans-Serif" font-size="10.00" fill="#000000">navigationItems</text>
</g>
<!-- A2&#45;&gt;A6 -->
<g id="edge6" class="edge">
<title>A2&#45;&gt;A6</title>
<path fill="none" stroke="#000000" d="M106.8419,-297.5362C112.5832,-284.0122 120.5804,-265.1743 127.6859,-248.437"/>
</g>
<!-- A3&#45;&gt;A6 -->
<g id="edge7" class="edge">
<title>A3&#45;&gt;A6</title>
<path fill="none" stroke="#000000" d="M180.3393,-297.5362C174.7255,-284.0122 166.906,-265.1743 159.9585,-248.437"/>
</g>
<!-- A7 -->
<g id="node8" class="node">
<title>A7</title>
<polygon fill="none" stroke="#000000" points="427.6206,-228 338.3864,-228 338.3864,-192 427.6206,-192 427.6206,-228"/>
<text text-anchor="middle" x="383.0035" y="-207" font-family="Helvetica,sans-Serif" font-size="10.00" fill="#000000">BurgerBuilder</text>
</g>
<!-- A5&#45;&gt;A7 -->
<g id="edge8" class="edge">
<title>A5&#45;&gt;A7</title>
<path fill="none" stroke="#000000" d="M383.0035,-297.5362C383.0035,-278.0806 383.0035,-247.6276 383.0035,-228.2522"/>
<text text-anchor="middle" x="391.4559" y="-243.3784" font-family="Helvetica,sans-Serif" font-size="10.00" fill="#000000">Different pages</text>
</g>
<!-- A8 -->
<g id="node9" class="node">
<title>A8</title>
<polygon fill="none" stroke="#000000" points="245.9527,-122 158.0543,-122 158.0543,-86 245.9527,-86 245.9527,-122"/>
<text text-anchor="middle" x="202.0035" y="-101" font-family="Helvetica,sans-Serif" font-size="10.00" fill="#000000">BuildControls</text>
</g>
<!-- A7&#45;&gt;A8 -->
<g id="edge9" class="edge">
<title>A7&#45;&gt;A8</title>
<path fill="none" stroke="#000000" d="M351.8885,-191.778C318.6347,-172.3034 266.2287,-141.6126 233.0148,-122.1613"/>
</g>
<!-- A9 -->
<g id="node10" class="node">
<title>A9</title>
<polygon fill="none" stroke="#000000" points="412.0075,-122 353.9995,-122 353.9995,-86 412.0075,-86 412.0075,-122"/>
<text text-anchor="middle" x="383.0035" y="-101" font-family="Helvetica,sans-Serif" font-size="10.00" fill="#000000">Burger</text>
</g>
<!-- A7&#45;&gt;A9 -->
<g id="edge10" class="edge">
<title>A7&#45;&gt;A9</title>
<path fill="none" stroke="#000000" d="M383.0035,-191.5362C383.0035,-172.0806 383.0035,-141.6276 383.0035,-122.2522"/>
</g>
<!-- A10 -->
<g id="node11" class="node">
<title>A10</title>
<polygon fill="none" stroke="#000000" points="550.729,-122 495.278,-122 495.278,-86 550.729,-86 550.729,-122"/>
<text text-anchor="middle" x="523.0035" y="-101" font-family="Helvetica,sans-Serif" font-size="10.00" fill="#000000">Modal</text>
</g>
<!-- A7&#45;&gt;A10 -->
<g id="edge11" class="edge">
<title>A7&#45;&gt;A10</title>
<path fill="none" stroke="#000000" d="M407.0704,-191.778C432.7133,-172.3626 473.0803,-141.799 498.7822,-122.339"/>
</g>
<!-- A11 -->
<g id="node12" class="node">
<title>A11</title>
<polygon fill="none" stroke="#000000" points="88.0105,-36 -.0035,-36 -.0035,0 88.0105,0 88.0105,-36"/>
<text text-anchor="middle" x="44.0035" y="-15" font-family="Helvetica,sans-Serif" font-size="10.00" fill="#000000">BuildControl1</text>
</g>
<!-- A8&#45;&gt;A11 -->
<g id="edge12" class="edge">
<title>A8&#45;&gt;A11</title>
<path fill="none" stroke="#000000" d="M168.8815,-85.9716C141.9156,-71.2939 104.036,-50.6759 77.0819,-36.0047"/>
</g>
<!-- A12 -->
<g id="node13" class="node">
<title>A12</title>
<polygon fill="none" stroke="#000000" points="194.0105,-36 105.9965,-36 105.9965,0 194.0105,0 194.0105,-36"/>
<text text-anchor="middle" x="150.0035" y="-15" font-family="Helvetica,sans-Serif" font-size="10.00" fill="#000000">BuildControl2</text>
</g>
<!-- A8&#45;&gt;A12 -->
<g id="edge13" class="edge">
<title>A8&#45;&gt;A12</title>
<path fill="none" stroke="#000000" d="M190.9756,-85.7616C182.1511,-71.1671 169.8358,-50.7996 161.0155,-36.2121"/>
</g>
<!-- A13 -->
<g id="node14" class="node">
<title>A13</title>
<polygon fill="none" stroke="#000000" points="294.4638,-36 211.5432,-36 211.5432,0 294.4638,0 294.4638,-36"/>
<text text-anchor="middle" x="253.0035" y="-15" font-family="Helvetica,sans-Serif" font-size="10.00" fill="#000000">OrderButton</text>
</g>
<!-- A8&#45;&gt;A13 -->
<g id="edge14" class="edge">
<title>A8&#45;&gt;A13</title>
<path fill="none" stroke="#000000" d="M212.8193,-85.7616C221.4742,-71.1671 233.5525,-50.7996 242.2033,-36.2121"/>
</g>
<!-- A14 -->
<g id="node15" class="node">
<title>A14</title>
<polygon fill="none" stroke="#000000" points="390.0225,-36 311.9845,-36 311.9845,0 390.0225,0 390.0225,-36"/>
<text text-anchor="middle" x="351.0035" y="-15" font-family="Helvetica,sans-Serif" font-size="10.00" fill="#000000">Ingredient1</text>
</g>
<!-- A9&#45;&gt;A14 -->
<g id="edge15" class="edge">
<title>A9&#45;&gt;A14</title>
<path fill="none" stroke="#000000" d="M376.2171,-85.7616C370.7866,-71.1671 363.208,-50.7996 357.7801,-36.2121"/>
</g>
<!-- A15 -->
<g id="node16" class="node">
<title>A15</title>
<polygon fill="none" stroke="#000000" points="486.0225,-36 407.9845,-36 407.9845,0 486.0225,0 486.0225,-36"/>
<text text-anchor="middle" x="447.0035" y="-15" font-family="Helvetica,sans-Serif" font-size="10.00" fill="#000000">Ingredient2</text>
</g>
<!-- A9&#45;&gt;A15 -->
<g id="edge16" class="edge">
<title>A9&#45;&gt;A15</title>
<path fill="none" stroke="#000000" d="M396.5763,-85.7616C407.4373,-71.1671 422.5945,-50.7996 433.4503,-36.2121"/>
</g>
<!-- A16 -->
<g id="node17" class="node">
<title>A16</title>
<polygon fill="none" stroke="#000000" points="607.5285,-36 504.4785,-36 504.4785,0 607.5285,0 607.5285,-36"/>
<text text-anchor="middle" x="556.0035" y="-15" font-family="Helvetica,sans-Serif" font-size="10.00" fill="#000000">{props.children2}</text>
</g>
<!-- A10&#45;&gt;A16 -->
<g id="edge17" class="edge">
<title>A10&#45;&gt;A16</title>
<path fill="none" stroke="#000000" d="M530.002,-85.7616C535.6022,-71.1671 543.4176,-50.7996 549.0151,-36.2121"/>
</g>
<!-- A17 -->
<g id="node18" class="node">
<title>A17</title>
<polygon fill="none" stroke="#000000" points="279.0035,-526 279.0035,-558 437.0035,-558 437.0035,-526 279.0035,-526"/>
<text text-anchor="start" x="346.331" y="-539" font-family="Helvetica,sans-Serif" font-size="10.00" fill="#000000">State</text>
<polygon fill="none" stroke="#000000" points="279.0035,-470 279.0035,-526 437.0035,-526 437.0035,-470 279.0035,-470"/>
<text text-anchor="start" x="288.8075" y="-507" font-family="Helvetica,sans-Serif" font-size="10.00" fill="#000000">Ingredients:\{meat:1,cheese:2\}</text>
<text text-anchor="start" x="322.7145" y="-495" font-family="Helvetica,sans-Serif" font-size="10.00" fill="#000000">purchased:false</text>
<text text-anchor="start" x="323.271" y="-483" font-family="Helvetica,sans-Serif" font-size="10.00" fill="#000000">totalPrice:12,53</text>
</g>
</g>
</svg>
